<?xml version="1.0" encoding="iso-8859-1"?>
<!-- Generator: Adobe Illustrator 25.0.0, SVG Export Plug-In . SVG Version: 6.00 Build 0)  -->
<svg version="1.1" id="Layer_1" xmlns="http://www.w3.org/2000/svg" xmlns:xlink="http://www.w3.org/1999/xlink" x="0px" y="0px"
	 viewBox="0 0 268.667 116.333" style="enable-background:new 0 0 268.667 116.333;" xml:space="preserve">
<g>
	<path style="fill:#B2B2B2;" d="M68.462,92.214c-6.469-1.534-10.131-6.828-16.267-15.267c-1.837-2.521-4.267-7.886-5.152-10.27
		c-1.634-4.877-2.9-8.652-1.542-13.648c0.769-2.795,1.714-7.253,12.39-8.246c8.541,0,11.566,0,21.371-1.313
		c-0.705,1.537-1.901,2.465-3.638,3.574c-13.261,4.213-21.399-0.482-26.918,6.655c-1.429,5.514,0.458,11.364,2.963,16.055
		c0.886,1.646,2.679,4.54,4.349,6.562c2.596,3.154,5.381,5.455,7.798,7.15c2.314,1.62,4.368,1.745,3.928-0.408
		c0.983,0.805,2.666,4.095,3.124,4.75C71.555,88.825,71.32,92.264,68.462,92.214"/>
	<path style="fill:#FDC600;" d="M57.978,21.525c6.229-0.018,14.097,2.243,20.17,6.112c7.343,4.675,12.024,11.6,7.522,15.047
		c-4.145,1.832-7.423,3.673-10.046,4.362c13.311-6.773-8.194-27.584-32.788-17.616c-1.347,0.613-5.548,4.206-5.455,9.4
		c0.044,2.076,0.871,5.049,2.963,8.081c1.954,2.85,6.222,7.564,9.624,10.195c2.505,1.942,6.773,6.296,9.575,9.053
		c2.541,2.518,4.114,4.313,5.678,7.216c1.336,2.462,2.018,5.318,3,8.04c1.188,3.261,2.567,6.223,2.827,6.643
		c-1.064-1.693-2.079-3.494-3.303-4.997c-1.993-2.438-4.291-4.434-6.452-6.729c-4.88-5.126-10.099-10.137-15.011-14.392
		C35.649,52.693,26.7,45.317,27.405,36.051C29.575,23.14,44.228,20.994,57.978,21.525"/>
	<rect x="97.824" y="33.021" width="4.586" height="32.236"/>
	<path d="M108.739,64.66v-4.537c2.61,1.194,4.496,1.907,5.703,2.144c1.195,0.248,2.309,0.372,3.328,0.372
		c1.836,0,3.311-0.495,4.391-1.505c1.074-1.011,1.609-2.229,1.609-3.619c0-1.083-0.287-2.052-0.844-2.958
		c-0.577-0.886-1.991-1.959-4.248-3.247l-2.249-1.269c-2.948-1.689-4.967-3.236-5.977-4.629c-1.021-1.392-1.535-2.938-1.535-4.647
		c0-1.529,0.402-2.949,1.215-4.279c0.814-1.341,1.896-2.382,3.257-3.135c1.362-0.751,3.083-1.144,5.156-1.144
		c2.483,0,5.125,0.434,7.905,1.259v4.163c-2.42-0.928-4.06-1.505-4.967-1.701c-0.888-0.196-1.783-0.288-2.681-0.288
		c-1.876,0-3.257,0.484-4.164,1.464c-0.887,0.979-1.34,1.949-1.34,2.978c0,0.683,0.215,1.392,0.637,2.126
		c0.423,0.699,0.991,1.32,1.724,1.832c0.709,0.517,1.699,1.146,2.957,1.836l2.311,1.32c2.999,1.71,5.008,3.268,6.019,4.671
		c1.01,1.412,1.517,3.05,1.517,4.897c0,2.514-0.962,4.68-2.886,6.544c-1.918,1.836-4.754,2.764-8.476,2.764
		c-1.155,0-2.278-0.072-3.34-0.236C112.679,65.688,111.01,65.275,108.739,64.66"/>
	<path d="M139.254,48.988h1.795c2.916,0,5.009-0.701,6.287-2.073c1.268-1.371,1.896-3.081,1.896-5.111
		c0-1.104-0.195-2.054-0.597-2.816c-0.414-0.763-1.063-1.381-1.959-1.845c-0.906-0.474-2.464-0.71-4.72-0.71h-2.703V48.988z
		 M134.738,65.257V33.021h8.589c3.062,0,5.269,0.298,6.588,0.908c1.34,0.628,2.35,1.556,3.071,2.811
		c0.722,1.26,1.052,2.826,1.052,4.723c0,2.217-0.465,4.142-1.401,5.814c-0.938,1.651-2.453,2.907-4.527,3.814
		c-2.081,0.908-4.381,1.36-6.875,1.36h-1.98v12.806H134.738z"/>
	<polygon points="167.028,65.257 167.028,36.433 155.594,36.433 155.594,33.021 183.045,33.021 183.045,36.433 171.614,36.433 
		171.614,65.257 	"/>
	<polygon points="187.593,65.257 187.593,33.021 205.665,33.021 205.665,36.433 192.17,36.433 192.17,46.781 203.478,46.781 
		203.478,50.163 192.17,50.163 192.17,61.835 206.59,61.835 206.59,65.257 	"/>
	<path d="M235.993,63.596c-1.32,0.689-2.496,1.197-3.525,1.518c-1.052,0.328-2.135,0.574-3.248,0.721
		c-1.113,0.163-2.33,0.235-3.64,0.235c-5.423,0-9.412-1.618-11.926-4.825c-2.515-3.207-3.765-7.226-3.765-12.091
		c0-4.927,1.3-9.01,3.908-12.184c2.609-3.176,6.618-4.764,12.03-4.764c2.866,0,6.247,0.475,10.123,1.424v4.299
		c-3.247-1.125-5.485-1.784-6.711-1.992c-1.237-0.205-2.401-0.297-3.505-0.297c-3.855,0-6.67,1.31-8.403,3.906
		c-1.729,2.638-2.595,5.855-2.595,9.649c0,3.979,0.998,7.175,2.986,9.619c2.012,2.453,4.836,3.66,8.486,3.66
		c1.021,0,2.04-0.084,3.04-0.249c1.011-0.185,2.02-0.461,3.031-0.802c0.989-0.372,2.237-0.951,3.712-1.733V63.596z"/>
</g>
</svg>
