<svg xmlns="http://www.w3.org/2000/svg" viewBox="0 0 268.67 91.13"><defs><style>.cls-1{fill:#b2b2b2;}.cls-2{fill:#fdc600;}.cls-3{fill:#1d1d1b;}</style></defs><g id="Layer_2" data-name="Layer 2"><g id="Layer_1-2" data-name="Layer 1"><path class="cls-1" d="M52.92,91.13c-8.33-2-13-8.8-20.94-19.66-2.37-3.25-5.5-10.16-6.64-13.23-2.1-6.28-3.73-11.14-2-17.57,1-3.6,2.21-9.34,16-10.62,11,0,14.9,0,27.52-1.69-.91,2-2.45,3.17-4.68,4.6-17.08,5.42-27.56-.62-34.67,8.57-1.84,7.1.59,14.63,3.82,20.67a59.2,59.2,0,0,0,5.6,8.45,49.93,49.93,0,0,0,10,9.21c3,2.09,5.63,2.25,5.06-.52,1.26,1,3.43,5.27,4,6.11.89,1.31.58,5.74-3.1,5.68"/><path class="cls-2" d="M39.42.09c8,0,18.16,2.89,26,7.87,9.45,6,15.48,14.94,9.68,19.38C69.75,29.7,65.52,32.07,62.15,33,79.29,24.24,51.59-2.56,19.92,10.27c-1.73.79-7.14,5.42-7,12.11a20,20,0,0,0,3.81,10.41,70.19,70.19,0,0,0,12.4,13.12c3.22,2.51,8.72,8.11,12.33,11.66a36.24,36.24,0,0,1,7.31,9.29c1.72,3.17,2.6,6.85,3.86,10.36a79,79,0,0,0,3.64,8.55A63.31,63.31,0,0,0,52,79.34c-2.57-3.14-5.53-5.71-8.31-8.67-6.28-6.6-13-13.05-19.33-18.53C10.67,40.23-.86,30.73.05,18.8,2.85,2.17,21.71-.59,39.42.09"/><rect class="cls-3" x="90.73" y="14.9" width="5.91" height="41.51"/><path class="cls-3" d="M104.79,55.64V49.8a38.1,38.1,0,0,0,7.35,2.76,21.08,21.08,0,0,0,4.28.48,8,8,0,0,0,5.66-1.94,6.21,6.21,0,0,0,2.07-4.66,7.07,7.07,0,0,0-1.09-3.81c-.74-1.14-2.56-2.52-5.47-4.18l-2.9-1.64c-3.79-2.17-6.39-4.16-7.69-6a9.83,9.83,0,0,1-2-6,10.4,10.4,0,0,1,1.56-5.51,11.15,11.15,0,0,1,4.2-4,13.59,13.59,0,0,1,6.64-1.47,36,36,0,0,1,10.18,1.62v5.36a55.8,55.8,0,0,0-6.4-2.19,16.05,16.05,0,0,0-3.45-.37c-2.42,0-4.19.62-5.36,1.88A5.71,5.71,0,0,0,110.66,24a5.56,5.56,0,0,0,.82,2.74,7.88,7.88,0,0,0,2.22,2.36,38.16,38.16,0,0,0,3.81,2.36l3,1.7q5.79,3.3,7.75,6a10.54,10.54,0,0,1,1.95,6.3,11.34,11.34,0,0,1-3.72,8.43c-2.47,2.36-6.12,3.56-10.91,3.56a28.44,28.44,0,0,1-4.3-.31,57.77,57.77,0,0,1-6.47-1.51"/><path class="cls-3" d="M144.09,35.46h2.31c3.76,0,6.45-.9,8.1-2.67a9.34,9.34,0,0,0,2.44-6.58,7.73,7.73,0,0,0-.77-3.63,5.75,5.75,0,0,0-2.52-2.37c-1.17-.61-3.18-.92-6.08-.92h-3.48Zm-5.82,20.95V14.9h11.06c3.95,0,6.79.38,8.49,1.17a8.67,8.67,0,0,1,4,3.62,12.05,12.05,0,0,1,1.36,6.08,15,15,0,0,1-1.81,7.49,11.9,11.9,0,0,1-5.83,4.91,21.91,21.91,0,0,1-8.85,1.75h-2.55V56.41Z"/><polygon class="cls-3" points="179.85 56.41 179.85 19.29 165.13 19.29 165.13 14.9 200.48 14.9 200.48 19.29 185.76 19.29 185.76 56.41 179.85 56.41"/><polygon class="cls-3" points="206.34 56.41 206.34 14.9 229.61 14.9 229.61 19.29 212.23 19.29 212.23 32.62 226.79 32.62 226.79 36.97 212.23 36.97 212.23 52.01 230.8 52.01 230.8 56.41 206.34 56.41"/><path class="cls-3" d="M268.67,54.27a28.88,28.88,0,0,1-4.54,2,24.43,24.43,0,0,1-4.19.92,32.43,32.43,0,0,1-4.68.31c-7,0-12.12-2.09-15.36-6.22s-4.85-9.3-4.85-15.57,1.67-11.6,5-15.69,8.53-6.13,15.5-6.13a56,56,0,0,1,13,1.83v5.54A65.73,65.73,0,0,0,260,18.65a27.91,27.91,0,0,0-4.51-.38c-5,0-8.59,1.69-10.83,5a22.24,22.24,0,0,0-3.34,12.43q0,7.68,3.85,12.38c2.59,3.16,6.23,4.72,10.93,4.72a24.36,24.36,0,0,0,3.91-.32,28.64,28.64,0,0,0,3.91-1,42.83,42.83,0,0,0,4.78-2.23Z"/></g></g></svg>