<?xml version="1.0" encoding="iso-8859-1"?>
<!-- Generator: Adobe Illustrator 25.0.0, SVG Export Plug-In . SVG Version: 6.00 Build 0)  -->
<svg version="1.1" id="Layer_1" xmlns="http://www.w3.org/2000/svg" xmlns:xlink="http://www.w3.org/1999/xlink" x="0px" y="0px"
	 viewBox="0 0 268.67 91.13" style="enable-background:new 0 0 268.67 91.13;" xml:space="preserve">
<g>
	<path style="fill:#B1B1B1;" d="M53.455,90.736C45.16,88.769,40.465,81.98,32.596,71.16c-2.355-3.233-5.472-10.112-6.606-13.168
		c-2.096-6.254-3.718-11.095-1.977-17.5c0.986-3.584,2.198-9.3,15.887-10.574c10.952,0,14.831,0,27.403-1.684
		c-0.903,1.971-2.437,3.161-4.665,4.583C45.634,38.219,35.2,32.199,28.123,41.35c-1.833,7.071,0.587,14.571,3.799,20.587
		c1.136,2.111,3.435,5.822,5.577,8.415c3.328,4.045,6.9,6.995,9.999,9.169c2.967,2.077,5.601,2.238,5.037-0.523
		c1.26,1.032,3.418,5.251,4.005,6.091C57.421,86.39,57.12,90.8,53.455,90.736"/>
	<path style="fill:#FFFFFF;" d="M40.011,0.093C47.999,0.07,58.088,2.969,65.875,7.93c9.416,5.995,15.418,14.874,9.645,19.295
		c-5.315,2.349-9.518,4.71-12.882,5.593c17.068-8.685-10.507-35.37-42.043-22.589c-1.727,0.786-7.114,5.393-6.995,12.054
		c0.056,2.662,1.117,6.474,3.8,10.362c2.505,3.654,7.978,9.699,12.34,13.073c3.212,2.491,8.685,8.073,12.278,11.608
		c3.258,3.228,5.276,5.531,7.281,9.253c1.713,3.157,2.587,6.82,3.847,10.31c1.523,4.181,3.291,7.979,3.625,8.517
		c-1.364-2.171-2.665-4.48-4.235-6.408c-2.556-3.126-5.502-5.685-8.273-8.628c-6.257-6.573-12.95-12.998-19.248-18.454
		C11.379,40.059-0.095,30.601,0.808,18.719C3.591,2.164,22.38-0.588,40.011,0.093"/>
	<rect x="91.104" y="14.834" style="fill:#1D1D1B;" width="5.88" height="41.336"/>
	<path style="fill:#1D1D1B;" d="M105.1,55.403v-5.818c3.346,1.531,5.765,2.446,7.313,2.749c1.532,0.318,2.961,0.477,4.268,0.477
		c2.354,0,4.245-0.635,5.63-1.93c1.378-1.296,2.064-2.858,2.064-4.641c0-1.389-0.368-2.632-1.082-3.794
		c-0.74-1.136-2.553-2.512-5.447-4.164l-2.884-1.627c-3.78-2.166-6.369-4.149-7.664-5.936c-1.309-1.785-1.968-3.767-1.968-5.959
		c0-1.96,0.515-3.781,1.558-5.487c1.044-1.72,2.431-3.055,4.176-4.02c1.747-0.963,3.953-1.467,6.612-1.467
		c3.184,0,6.572,0.557,10.136,1.615v5.338c-3.103-1.19-5.206-1.93-6.369-2.181c-1.139-0.252-2.287-0.369-3.438-0.369
		c-2.406,0-4.176,0.62-5.34,1.877c-1.137,1.255-1.718,2.5-1.718,3.819c0,0.876,0.275,1.785,0.816,2.726
		c0.543,0.897,1.271,1.693,2.211,2.349c0.909,0.663,2.179,1.469,3.792,2.354l2.963,1.693c3.846,2.193,6.421,4.191,7.718,5.989
		c1.295,1.811,1.945,3.911,1.945,6.279c0,3.224-1.233,6.001-3.701,8.391c-2.459,2.354-6.096,3.544-10.869,3.544
		c-1.481,0-2.921-0.093-4.283-0.303C110.152,56.722,108.012,56.192,105.1,55.403"/>
	<path style="fill:#1D1D1B;" d="M144.23,35.308h2.302c3.739,0,6.423-0.899,8.062-2.658c1.625-1.758,2.432-3.951,2.432-6.554
		c0-1.416-0.25-2.633-0.765-3.611c-0.531-0.979-1.364-1.771-2.512-2.366c-1.162-0.607-3.159-0.91-6.052-0.91h-3.466V35.308z
		 M138.438,56.17V14.835h11.013c3.926,0,6.756,0.382,8.447,1.164c1.718,0.805,3.013,1.995,3.938,3.604
		c0.925,1.616,1.349,3.624,1.349,6.056c0,2.843-0.596,5.311-1.797,7.455c-1.203,2.117-3.146,3.727-5.805,4.891
		c-2.669,1.165-5.617,1.744-8.816,1.744h-2.538V56.17H138.438z"/>
	<polygon style="fill:#1D1D1B;" points="179.843,56.17 179.843,19.209 165.182,19.209 165.182,14.835 200.382,14.835 
		200.382,19.209 185.723,19.209 185.723,56.17 	"/>
	<polygon style="fill:#1D1D1B;" points="206.213,56.17 206.213,14.835 229.385,14.835 229.385,19.209 212.082,19.209 
		212.082,32.479 226.582,32.479 226.582,36.815 212.082,36.815 212.082,51.782 230.572,51.782 230.572,56.17 	"/>
	<path style="fill:#1D1D1B;" d="M268.274,54.04c-1.693,0.884-3.201,1.535-4.521,1.946c-1.349,0.421-2.737,0.736-4.165,0.924
		c-1.427,0.209-2.988,0.302-4.667,0.302c-6.954,0-12.069-2.075-15.292-6.187c-3.224-4.112-4.827-9.265-4.827-15.504
		c0-6.318,1.667-11.554,5.011-15.623c3.346-4.073,8.486-6.109,15.426-6.109c3.675,0,8.01,0.609,12.981,1.826v5.512
		c-4.164-1.443-7.034-2.288-8.605-2.555c-1.587-0.263-3.079-0.381-4.494-0.381c-4.944,0-8.553,1.68-10.775,5.009
		c-2.218,3.382-3.327,7.508-3.327,12.372c0,5.102,1.28,9.2,3.829,12.334c2.58,3.146,6.201,4.693,10.882,4.693
		c1.31,0,2.616-0.108,3.898-0.319c1.296-0.237,2.591-0.591,3.887-1.028c1.268-0.477,2.869-1.22,4.76-2.223V54.04z"/>
	<rect x="90.984" y="65.847" style="fill:#1D1D1B;" width="0.694" height="5.316"/>
	<path style="fill:#1D1D1B;" d="M92.906,68.379c0-0.402-0.008-0.718-0.029-1.033h0.613l0.039,0.631h0.016
		c0.19-0.356,0.631-0.71,1.261-0.71c0.53,0,1.348,0.316,1.348,1.624v2.272h-0.692v-2.2c0-0.614-0.23-1.127-0.882-1.127
		c-0.451,0-0.804,0.322-0.932,0.709c-0.029,0.086-0.045,0.204-0.045,0.324v2.294h-0.696V68.379z"/>
	<path style="fill:#1D1D1B;" d="M97.166,70.46c0.213,0.126,0.576,0.268,0.924,0.268c0.496,0,0.732-0.243,0.732-0.567
		c0-0.332-0.196-0.505-0.701-0.693c-0.694-0.254-1.017-0.624-1.017-1.081c0-0.616,0.504-1.121,1.317-1.121
		c0.386,0,0.724,0.103,0.93,0.237l-0.165,0.505c-0.15-0.094-0.426-0.229-0.781-0.229c-0.409,0-0.629,0.237-0.629,0.522
		c0,0.316,0.22,0.456,0.717,0.654c0.654,0.244,1.001,0.576,1.001,1.142c0,0.679-0.528,1.152-1.419,1.152
		c-0.418,0-0.804-0.11-1.072-0.268L97.166,70.46z"/>
	<path style="fill:#1D1D1B;" d="M101.196,66.432v0.914h0.994v0.529h-0.994v2.059c0,0.472,0.133,0.74,0.521,0.74
		c0.191,0,0.301-0.016,0.404-0.046l0.029,0.527c-0.132,0.048-0.345,0.095-0.613,0.095c-0.324,0-0.584-0.11-0.75-0.292
		c-0.19-0.213-0.268-0.552-0.268-1.002v-2.081h-0.591v-0.529h0.591v-0.709L101.196,66.432z"/>
	<path style="fill:#1D1D1B;" d="M102.947,67.346h0.695v3.818h-0.695V67.346z M103.72,66.274c0,0.238-0.165,0.426-0.441,0.426
		c-0.252,0-0.418-0.188-0.418-0.426c0-0.237,0.174-0.433,0.433-0.433C103.548,65.841,103.72,66.03,103.72,66.274"/>
	<path style="fill:#1D1D1B;" d="M105.606,66.432v0.914h0.992v0.529h-0.992v2.059c0,0.472,0.133,0.74,0.519,0.74
		c0.19,0,0.302-0.016,0.403-0.046l0.032,0.527c-0.133,0.048-0.346,0.095-0.614,0.095c-0.324,0-0.583-0.11-0.75-0.292
		c-0.19-0.213-0.268-0.552-0.268-1.002v-2.081h-0.592v-0.529h0.592v-0.709L105.606,66.432z"/>
	<path style="fill:#1D1D1B;" d="M110.55,70.113c0,0.402,0.007,0.75,0.029,1.049h-0.613l-0.039-0.624h-0.016
		c-0.173,0.308-0.584,0.71-1.262,0.71c-0.599,0-1.315-0.341-1.315-1.672v-2.232h0.694v2.106c0,0.724,0.228,1.221,0.851,1.221
		c0.464,0,0.787-0.323,0.914-0.639c0.039-0.095,0.063-0.22,0.063-0.354v-2.334h0.694V70.113z"/>
	<path style="fill:#1D1D1B;" d="M112.513,66.432v0.914h0.994v0.529h-0.994v2.059c0,0.472,0.135,0.74,0.52,0.74
		c0.192,0,0.302-0.016,0.404-0.046l0.029,0.527c-0.132,0.048-0.345,0.095-0.613,0.095c-0.324,0-0.583-0.11-0.75-0.292
		c-0.19-0.213-0.268-0.552-0.268-1.002v-2.081h-0.59v-0.529h0.59v-0.709L112.513,66.432z"/>
	<path style="fill:#1D1D1B;" d="M114.653,69.263c0,0.834,0.473,1.465,1.15,1.465c0.663,0,1.159-0.624,1.159-1.483
		c0-0.646-0.323-1.458-1.142-1.458C115.008,67.788,114.653,68.544,114.653,69.263 M117.671,69.223c0,1.411-0.986,2.026-1.899,2.026
		c-1.024,0-1.829-0.756-1.829-1.964c0-1.27,0.843-2.019,1.891-2.019C116.931,67.267,117.671,68.063,117.671,69.223"/>
	<path style="fill:#1D1D1B;" d="M120.111,70.327c0.306,0.195,0.749,0.347,1.222,0.347c0.701,0,1.11-0.373,1.11-0.909
		c0-0.487-0.283-0.779-1-1.047c-0.868-0.316-1.404-0.773-1.404-1.515c0-0.826,0.686-1.444,1.719-1.444
		c0.537,0,0.94,0.129,1.166,0.262l-0.188,0.561c-0.165-0.103-0.519-0.252-1-0.252c-0.727,0-1.003,0.432-1.003,0.795
		c0,0.496,0.323,0.741,1.058,1.026c0.897,0.346,1.346,0.78,1.346,1.559c0,0.821-0.597,1.539-1.851,1.539
		c-0.511,0-1.073-0.158-1.357-0.347L120.111,70.327z"/>
	<path style="fill:#1D1D1B;" d="M127.231,70.113c0,0.402,0.009,0.75,0.031,1.049h-0.614l-0.038-0.624h-0.017
		c-0.173,0.308-0.582,0.71-1.26,0.71c-0.599,0-1.317-0.341-1.317-1.672v-2.232h0.694v2.106c0,0.724,0.228,1.221,0.851,1.221
		c0.465,0,0.788-0.323,0.914-0.639c0.04-0.095,0.063-0.22,0.063-0.354v-2.334h0.694V70.113z"/>
	<path style="fill:#1D1D1B;" d="M129.045,69.609c0,0.103,0.01,0.198,0.032,0.284c0.125,0.48,0.543,0.811,1.04,0.811
		c0.733,0,1.159-0.6,1.159-1.473c0-0.758-0.4-1.412-1.133-1.412c-0.475,0-0.925,0.332-1.051,0.85
		c-0.021,0.088-0.047,0.19-0.047,0.277V69.609z M128.359,68.592c0-0.488-0.016-0.883-0.029-1.247h0.613l0.039,0.655h0.016
		c0.275-0.465,0.733-0.733,1.358-0.733c0.928,0,1.622,0.781,1.622,1.932c0,1.371-0.843,2.051-1.74,2.051
		c-0.506,0-0.947-0.224-1.177-0.602h-0.015v2.075h-0.686V68.592z"/>
	<path style="fill:#1D1D1B;" d="M135.246,68.884c0.008-0.433-0.183-1.118-0.964-1.118c-0.709,0-1.009,0.636-1.064,1.118H135.246z
		 M133.21,69.381c0.018,0.938,0.609,1.325,1.309,1.325c0.496,0,0.804-0.088,1.058-0.198l0.125,0.496
		c-0.244,0.11-0.669,0.245-1.278,0.245c-1.175,0-1.876-0.78-1.876-1.931c0-1.152,0.68-2.051,1.789-2.051
		c1.255,0,1.578,1.088,1.578,1.789c0,0.143-0.007,0.244-0.023,0.324H133.21z"/>
	<path style="fill:#1D1D1B;" d="M136.751,68.537c0-0.45-0.008-0.835-0.03-1.191h0.606l0.033,0.758h0.023
		c0.173-0.512,0.599-0.837,1.064-0.837c0.07,0,0.127,0.009,0.189,0.016v0.654c-0.071-0.015-0.142-0.015-0.237-0.015
		c-0.488,0-0.835,0.363-0.929,0.883c-0.018,0.094-0.024,0.212-0.024,0.322v2.036h-0.695V68.537z"/>
	<path style="fill:#1D1D1B;" d="M139.338,67.346h0.695v3.818h-0.695V67.346z M140.112,66.274c0,0.238-0.168,0.426-0.443,0.426
		c-0.253,0-0.416-0.188-0.416-0.426c0-0.237,0.173-0.433,0.431-0.433C139.937,65.841,140.112,66.03,140.112,66.274"/>
	<path style="fill:#1D1D1B;" d="M141.594,69.263c0,0.834,0.475,1.465,1.151,1.465c0.664,0,1.16-0.624,1.16-1.483
		c0-0.646-0.323-1.458-1.145-1.458C141.948,67.788,141.594,68.544,141.594,69.263 M144.613,69.223c0,1.411-0.984,2.026-1.901,2.026
		c-1.024,0-1.828-0.756-1.828-1.964c0-1.27,0.844-2.019,1.893-2.019C143.874,67.267,144.613,68.063,144.613,69.223"/>
	<path style="fill:#1D1D1B;" d="M145.467,68.537c0-0.45-0.007-0.835-0.031-1.191h0.606l0.033,0.758h0.024
		c0.173-0.512,0.599-0.837,1.063-0.837c0.071,0,0.127,0.009,0.189,0.016v0.654c-0.07-0.015-0.142-0.015-0.235-0.015
		c-0.49,0-0.836,0.363-0.93,0.883c-0.016,0.094-0.024,0.212-0.024,0.322v2.036h-0.694V68.537z"/>
	<path style="fill:#1D1D1B;" d="M150.381,68.473c0.15,0.04,0.338,0.056,0.568,0.056c0.827,0,1.331-0.412,1.331-1.127
		c0-0.71-0.505-1.049-1.253-1.049c-0.299,0-0.528,0.024-0.646,0.054V68.473z M149.694,65.911c0.331-0.054,0.765-0.101,1.317-0.101
		c0.676,0,1.175,0.158,1.49,0.441c0.283,0.252,0.465,0.639,0.465,1.112c0,0.481-0.142,0.859-0.41,1.135
		c-0.371,0.388-0.954,0.584-1.625,0.584c-0.204,0-0.393-0.008-0.551-0.048v2.129h-0.686V65.911z"/>
	<path style="fill:#1D1D1B;" d="M154.08,69.263c0,0.834,0.473,1.465,1.15,1.465c0.665,0,1.16-0.624,1.16-1.483
		c0-0.646-0.323-1.458-1.143-1.458C154.434,67.788,154.08,68.544,154.08,69.263 M157.097,69.223c0,1.411-0.984,2.026-1.9,2.026
		c-1.024,0-1.828-0.756-1.828-1.964c0-1.27,0.843-2.019,1.892-2.019C156.359,67.267,157.097,68.063,157.097,69.223"/>
	<rect x="157.951" y="65.565" style="fill:#1D1D1B;" width="0.695" height="5.597"/>
	<path style="fill:#1D1D1B;" d="M159.79,67.346h0.695v3.818h-0.695V67.346z M160.564,66.274c0,0.238-0.165,0.426-0.443,0.426
		c-0.253,0-0.416-0.188-0.416-0.426c0-0.237,0.173-0.433,0.431-0.433C160.388,65.841,160.564,66.03,160.564,66.274"/>
	<path style="fill:#1D1D1B;" d="M162.447,66.432v0.914h0.994v0.529h-0.994v2.059c0,0.472,0.133,0.74,0.521,0.74
		c0.19,0,0.301-0.016,0.403-0.046l0.03,0.527c-0.133,0.048-0.346,0.095-0.614,0.095c-0.326,0-0.584-0.11-0.751-0.292
		c-0.188-0.213-0.268-0.552-0.268-1.002v-2.081h-0.591v-0.529h0.591v-0.709L162.447,66.432z"/>
	<path style="fill:#1D1D1B;" d="M166.728,65.699l-0.962,1.127h-0.488l0.695-1.127H166.728z M166.572,68.884
		c0.008-0.433-0.183-1.118-0.963-1.118c-0.709,0-1.009,0.636-1.064,1.118H166.572z M164.537,69.381
		c0.016,0.938,0.607,1.325,1.309,1.325c0.497,0,0.803-0.088,1.057-0.198l0.125,0.496c-0.243,0.11-0.669,0.245-1.277,0.245
		c-1.173,0-1.876-0.78-1.876-1.931c0-1.152,0.679-2.051,1.789-2.051c1.254,0,1.577,1.088,1.577,1.789
		c0,0.143-0.007,0.244-0.023,0.324H164.537z"/>
	<path style="fill:#1D1D1B;" d="M170.798,71.027c-0.182,0.088-0.584,0.222-1.096,0.222c-1.151,0-1.9-0.783-1.9-1.947
		c0-1.175,0.804-2.036,2.05-2.036c0.41,0,0.773,0.103,0.962,0.207l-0.158,0.527c-0.165-0.085-0.426-0.18-0.804-0.18
		c-0.875,0-1.349,0.654-1.349,1.443c0,0.883,0.567,1.428,1.325,1.428c0.394,0,0.654-0.094,0.851-0.182L170.798,71.027z"/>
	<path style="fill:#1D1D1B;" d="M171.588,68.379c0-0.402-0.007-0.718-0.031-1.033h0.615l0.04,0.631h0.015
		c0.189-0.356,0.631-0.71,1.261-0.71c0.528,0,1.349,0.316,1.349,1.624v2.272h-0.694v-2.2c0-0.614-0.23-1.127-0.883-1.127
		c-0.449,0-0.804,0.322-0.93,0.709c-0.031,0.086-0.048,0.204-0.048,0.324v2.294h-0.694V68.379z"/>
	<path style="fill:#1D1D1B;" d="M175.943,67.346h0.694v3.818h-0.694V67.346z M176.716,66.274c0,0.238-0.167,0.426-0.442,0.426
		c-0.253,0-0.418-0.188-0.418-0.426c0-0.237,0.174-0.433,0.433-0.433C176.542,65.841,176.716,66.03,176.716,66.274"/>
	<path style="fill:#1D1D1B;" d="M180.484,71.027c-0.18,0.088-0.583,0.222-1.096,0.222c-1.151,0-1.9-0.783-1.9-1.947
		c0-1.175,0.804-2.036,2.049-2.036c0.411,0,0.774,0.103,0.962,0.207l-0.158,0.527c-0.165-0.085-0.426-0.18-0.804-0.18
		c-0.874,0-1.347,0.654-1.347,1.443c0,0.883,0.568,1.428,1.325,1.428c0.393,0,0.654-0.094,0.851-0.182L180.484,71.027z"/>
	<path style="fill:#1D1D1B;" d="M181.662,69.263c0,0.834,0.471,1.465,1.151,1.465c0.661,0,1.157-0.624,1.157-1.483
		c0-0.646-0.323-1.458-1.143-1.458C182.015,67.788,181.662,68.544,181.662,69.263 M184.681,69.223c0,1.411-0.987,2.026-1.901,2.026
		c-1.024,0-1.828-0.756-1.828-1.964c0-1.27,0.841-2.019,1.891-2.019C183.94,67.267,184.681,68.063,184.681,69.223"/>
	<path style="fill:#1D1D1B;" d="M189.785,68.9c0-0.086-0.01-0.204-0.032-0.292c-0.101-0.434-0.481-0.798-1.001-0.798
		c-0.718,0-1.146,0.631-1.146,1.469c0,0.771,0.388,1.409,1.128,1.409c0.465,0,0.893-0.316,1.018-0.825
		c0.022-0.096,0.032-0.192,0.032-0.302V68.9z M190.469,65.564v4.612c0,0.341,0.018,0.726,0.034,0.987h-0.617l-0.031-0.662h-0.021
		c-0.205,0.425-0.664,0.75-1.287,0.75c-0.922,0-1.64-0.781-1.64-1.941c-0.007-1.271,0.789-2.042,1.713-2.042
		c0.591,0,0.977,0.276,1.151,0.577h0.016v-2.28H190.469z"/>
	<path style="fill:#1D1D1B;" d="M194.028,68.884c0.008-0.433-0.183-1.118-0.962-1.118c-0.71,0-1.009,0.636-1.066,1.118H194.028z
		 M191.993,69.381c0.016,0.938,0.607,1.325,1.309,1.325c0.498,0,0.803-0.088,1.056-0.198l0.126,0.496
		c-0.244,0.11-0.67,0.245-1.277,0.245c-1.175,0-1.876-0.78-1.876-1.931c0-1.152,0.679-2.051,1.789-2.051
		c1.254,0,1.579,1.088,1.579,1.789c0,0.143-0.01,0.244-0.025,0.324H191.993z"/>
	<polygon style="fill:#1D1D1B;" points="197.892,66.432 196.274,66.432 196.274,65.848 200.209,65.848 200.209,66.432 
		198.586,66.432 198.586,71.163 197.892,71.163 	"/>
	<path style="fill:#1D1D1B;" d="M202.616,68.884c0.008-0.433-0.183-1.118-0.962-1.118c-0.711,0-1.009,0.636-1.066,1.118H202.616z
		 M200.581,69.381c0.016,0.938,0.607,1.325,1.311,1.325c0.496,0,0.801-0.088,1.053-0.198l0.127,0.496
		c-0.244,0.11-0.67,0.245-1.277,0.245c-1.175,0-1.876-0.78-1.876-1.931c0-1.152,0.679-2.051,1.789-2.051
		c1.253,0,1.579,1.088,1.579,1.789c0,0.143-0.01,0.244-0.026,0.324H200.581z"/>
	<path style="fill:#1D1D1B;" d="M206.843,71.027c-0.182,0.088-0.584,0.222-1.096,0.222c-1.151,0-1.902-0.783-1.902-1.947
		c0-1.175,0.806-2.036,2.051-2.036c0.411,0,0.774,0.103,0.963,0.207l-0.158,0.527c-0.167-0.085-0.426-0.18-0.805-0.18
		c-0.874,0-1.347,0.654-1.347,1.443c0,0.883,0.567,1.428,1.325,1.428c0.393,0,0.654-0.094,0.852-0.182L206.843,71.027z"/>
	<path style="fill:#1D1D1B;" d="M207.632,68.379c0-0.402-0.007-0.718-0.031-1.033h0.615l0.039,0.631h0.016
		c0.189-0.356,0.629-0.71,1.261-0.71c0.528,0,1.349,0.316,1.349,1.624v2.272h-0.694v-2.2c0-0.614-0.23-1.127-0.883-1.127
		c-0.45,0-0.805,0.322-0.93,0.709c-0.031,0.086-0.048,0.204-0.048,0.324v2.294h-0.694V68.379z"/>
	<path style="fill:#1D1D1B;" d="M212.418,69.263c0,0.834,0.476,1.465,1.152,1.465c0.661,0,1.157-0.624,1.157-1.483
		c0-0.646-0.321-1.458-1.142-1.458C212.774,67.788,212.418,68.544,212.418,69.263 M215.438,69.223c0,1.411-0.984,2.026-1.901,2.026
		c-1.023,0-1.828-0.756-1.828-1.964c0-1.27,0.844-2.019,1.893-2.019C214.697,67.267,215.438,68.063,215.438,69.223"/>
	<rect x="216.291" y="65.565" style="fill:#1D1D1B;" width="0.694" height="5.597"/>
	<path style="fill:#1D1D1B;" d="M218.565,69.263c0,0.834,0.472,1.465,1.151,1.465c0.661,0,1.157-0.624,1.157-1.483
		c0-0.646-0.322-1.458-1.142-1.458C218.919,67.788,218.565,68.544,218.565,69.263 M221.583,69.223c0,1.411-0.984,2.026-1.9,2.026
		c-1.024,0-1.828-0.756-1.828-1.964c0-1.27,0.844-2.019,1.892-2.019C220.843,67.267,221.583,68.063,221.583,69.223"/>
	<path style="fill:#1D1D1B;" d="M225.008,68.852c0-0.118-0.008-0.222-0.04-0.309c-0.125-0.408-0.456-0.739-0.969-0.739
		c-0.661,0-1.136,0.558-1.136,1.443c0,0.749,0.387,1.371,1.128,1.371c0.433,0,0.819-0.268,0.962-0.71
		c0.039-0.118,0.055-0.252,0.055-0.369V68.852z M225.701,70.602c0,0.884-0.18,1.411-0.543,1.751
		c-0.378,0.339-0.914,0.458-1.395,0.458c-0.458,0-0.962-0.113-1.27-0.316l0.173-0.537c0.253,0.165,0.649,0.308,1.12,0.308
		c0.709,0,1.232-0.371,1.232-1.34v-0.418H225c-0.205,0.356-0.624,0.637-1.215,0.637c-0.945,0-1.624-0.804-1.624-1.861
		c0-1.291,0.845-2.019,1.727-2.019c0.664,0,1.019,0.342,1.19,0.655h0.018l0.022-0.575h0.615c-0.024,0.268-0.031,0.584-0.031,1.042
		V70.602z"/>
	<path style="fill:#1D1D1B;" d="M226.777,67.346h0.692v3.818h-0.692V67.346z M227.55,66.274c0,0.238-0.165,0.426-0.441,0.426
		c-0.253,0-0.418-0.188-0.418-0.426c0-0.237,0.173-0.433,0.433-0.433C227.377,65.841,227.55,66.03,227.55,66.274"/>
	<path style="fill:#1D1D1B;" d="M230.61,69.214c-0.756-0.015-1.615,0.119-1.615,0.859c0,0.457,0.298,0.664,0.646,0.664
		c0.503,0,0.828-0.316,0.938-0.64c0.024-0.079,0.031-0.158,0.031-0.22V69.214z M231.28,70.248c0,0.331,0.016,0.654,0.056,0.914
		h-0.624l-0.055-0.482h-0.024c-0.213,0.301-0.622,0.569-1.167,0.569c-0.771,0-1.166-0.545-1.166-1.096
		c0-0.922,0.819-1.429,2.294-1.419v-0.079c0-0.308-0.088-0.885-0.868-0.875c-0.364,0-0.733,0.1-1.001,0.284l-0.158-0.466
		c0.316-0.198,0.78-0.332,1.26-0.332c1.167,0,1.451,0.798,1.451,1.553V70.248z"/>
	<path style="fill:#1D1D1B;" d="M232.284,70.46c0.212,0.126,0.575,0.268,0.922,0.268c0.497,0,0.734-0.243,0.734-0.567
		c0-0.332-0.198-0.505-0.702-0.693c-0.693-0.254-1.017-0.624-1.017-1.081c0-0.616,0.505-1.121,1.317-1.121
		c0.386,0,0.725,0.103,0.929,0.237l-0.165,0.505c-0.15-0.094-0.426-0.229-0.78-0.229c-0.408,0-0.63,0.237-0.63,0.522
		c0,0.316,0.222,0.456,0.716,0.654c0.655,0.244,1.001,0.576,1.001,1.142c0,0.679-0.527,1.152-1.419,1.152
		c-0.417,0-0.803-0.11-1.071-0.268L232.284,70.46z"/>
	<path style="fill:#1D1D1B;" d="M239.546,68.884c0.007-0.433-0.183-1.118-0.962-1.118c-0.711,0-1.009,0.636-1.066,1.118H239.546z
		 M237.51,69.381c0.018,0.938,0.609,1.325,1.311,1.325c0.497,0,0.803-0.088,1.054-0.198l0.127,0.496
		c-0.246,0.11-0.671,0.245-1.277,0.245c-1.175,0-1.876-0.78-1.876-1.931c0-1.152,0.679-2.051,1.789-2.051
		c1.253,0,1.579,1.088,1.579,1.789c0,0.143-0.009,0.244-0.025,0.324H237.51z"/>
	<path style="fill:#1D1D1B;" d="M246.428,70.996c-0.245,0.127-0.756,0.253-1.403,0.253c-1.498,0-2.617-0.947-2.617-2.697
		c0-1.671,1.127-2.79,2.775-2.79c0.654,0,1.079,0.141,1.262,0.235l-0.175,0.561c-0.25-0.126-0.624-0.222-1.062-0.222
		c-1.247,0-2.076,0.798-2.076,2.193c0,1.307,0.751,2.136,2.036,2.136c0.426,0,0.852-0.088,1.127-0.222L246.428,70.996z"/>
	<path style="fill:#1D1D1B;" d="M247.227,67.346h0.694v3.818h-0.694V67.346z M247.998,66.274c0,0.238-0.164,0.426-0.441,0.426
		c-0.253,0-0.418-0.188-0.418-0.426c0-0.237,0.173-0.433,0.433-0.433C247.826,65.841,247.998,66.03,247.998,66.274"/>
	<path style="fill:#1D1D1B;" d="M250.773,65.699l0.756,1.127h-0.527l-0.457-0.741h-0.018l-0.456,0.741h-0.521l0.741-1.127H250.773z
		 M251.467,68.884c0.009-0.433-0.18-1.118-0.962-1.118c-0.709,0-1.008,0.636-1.064,1.118H251.467z M249.433,69.381
		c0.016,0.938,0.607,1.325,1.309,1.325c0.497,0,0.804-0.088,1.056-0.198l0.126,0.496c-0.244,0.11-0.67,0.245-1.276,0.245
		c-1.175,0-1.878-0.78-1.878-1.931c0-1.152,0.68-2.051,1.791-2.051c1.254,0,1.578,1.088,1.578,1.789
		c0,0.143-0.009,0.244-0.024,0.324H249.433z"/>
	<path style="fill:#1D1D1B;" d="M252.975,68.379c0-0.402-0.007-0.718-0.03-1.033h0.614l0.04,0.631h0.016
		c0.188-0.356,0.63-0.71,1.261-0.71c0.528,0,1.347,0.316,1.347,1.624v2.272h-0.694v-2.2c0-0.614-0.229-1.127-0.882-1.127
		c-0.45,0-0.805,0.322-0.932,0.709c-0.03,0.086-0.048,0.204-0.048,0.324v2.294h-0.694V68.379z"/>
	<path style="fill:#1D1D1B;" d="M260.047,71.027c-0.18,0.088-0.584,0.222-1.096,0.222c-1.151,0-1.902-0.783-1.902-1.947
		c0-1.175,0.806-2.036,2.051-2.036c0.411,0,0.774,0.103,0.963,0.207l-0.158,0.527c-0.167-0.085-0.426-0.18-0.805-0.18
		c-0.874,0-1.347,0.654-1.347,1.443c0,0.883,0.569,1.428,1.325,1.428c0.393,0,0.654-0.094,0.852-0.182L260.047,71.027z"/>
	<path style="fill:#1D1D1B;" d="M260.839,67.346h0.694v3.818h-0.694V67.346z M261.61,66.274c0,0.238-0.165,0.426-0.441,0.426
		c-0.253,0-0.418-0.188-0.418-0.426c0-0.237,0.174-0.433,0.433-0.433C261.437,65.841,261.61,66.03,261.61,66.274"/>
	<path style="fill:#1D1D1B;" d="M264.67,69.214c-0.756-0.015-1.615,0.119-1.615,0.859c0,0.457,0.298,0.664,0.646,0.664
		c0.503,0,0.828-0.316,0.938-0.64c0.024-0.079,0.031-0.158,0.031-0.22V69.214z M265.34,70.248c0,0.331,0.016,0.654,0.056,0.914
		h-0.624l-0.055-0.482h-0.024c-0.213,0.301-0.622,0.569-1.166,0.569c-0.773,0-1.167-0.545-1.167-1.096
		c0-0.922,0.82-1.429,2.294-1.419v-0.079c0-0.308-0.086-0.885-0.868-0.875c-0.362,0-0.733,0.1-1.001,0.284l-0.158-0.466
		c0.316-0.198,0.78-0.332,1.26-0.332c1.167,0,1.451,0.798,1.451,1.553V70.248z"/>
	<path style="fill:#1D1D1B;" d="M266.343,70.46c0.212,0.126,0.576,0.268,0.922,0.268c0.495,0,0.734-0.243,0.734-0.567
		c0-0.332-0.198-0.505-0.701-0.693c-0.694-0.254-1.019-0.624-1.019-1.081c0-0.616,0.506-1.121,1.317-1.121
		c0.386,0,0.726,0.103,0.929,0.237l-0.163,0.505c-0.153-0.094-0.426-0.229-0.781-0.229c-0.411,0-0.631,0.237-0.631,0.522
		c0,0.316,0.22,0.456,0.716,0.654c0.656,0.244,1.004,0.576,1.004,1.142c0,0.679-0.531,1.152-1.423,1.152
		c-0.416,0-0.801-0.11-1.069-0.268L266.343,70.46z"/>
</g>
</svg>
