<svg xmlns="http://www.w3.org/2000/svg" viewBox="0 0 105.58 137.49"><defs><style>.cls-1{fill:#b2b2b2;}.cls-2{fill:#fdc600;}.cls-3{fill:#1d1d1b;}</style></defs><g id="Layer_2" data-name="Layer 2"><g id="Layer_1-2" data-name="Layer 1"><path class="cls-1" d="M66.75,89.86c-8.21-2-12.86-8.67-20.65-19.39-2.34-3.2-5.42-10-6.55-13-2.07-6.19-3.68-11-1.95-17.33,1-3.55,2.17-9.21,15.73-10.47,10.85,0,14.69,0,27.14-1.67-.9,1.95-2.41,3.13-4.62,4.54C59,37.85,48.67,31.89,41.67,41c-1.82,7,.58,14.43,3.76,20.39A58.37,58.37,0,0,0,51,69.67a49.17,49.17,0,0,0,9.91,9.08c2.93,2.06,5.54,2.22,5-.52,1.25,1,3.39,5.2,4,6,.87,1.29.57,5.66-3.06,5.6"/><path class="cls-2" d="M53.44.09c7.91,0,17.9,2.85,25.61,7.76C88.38,13.79,94.32,22.58,88.6,27c-5.26,2.33-9.42,4.66-12.75,5.54,16.9-8.6-10.41-35-41.64-22.37-1.71.78-7,5.34-6.92,11.94a19.61,19.61,0,0,0,3.76,10.26,69.51,69.51,0,0,0,12.22,13c3.18,2.46,8.6,8,12.16,11.49a35.85,35.85,0,0,1,7.21,9.16c1.7,3.13,2.56,6.76,3.81,10.21A78.55,78.55,0,0,0,70,84.58a62.87,62.87,0,0,0-4.2-6.35c-2.53-3.09-5.45-5.63-8.19-8.54-6.2-6.51-12.83-12.87-19.06-18.28-13.5-11.74-24.87-21.11-24-32.87C17.37,2.14,36-.58,53.44.09"/><rect class="cls-3" x="0.07" y="103.04" width="3.49" height="24.56"/><path class="cls-3" d="M8.39,127.15v-3.46a22.64,22.64,0,0,0,4.34,1.64,12.47,12.47,0,0,0,2.54.28,4.73,4.73,0,0,0,3.35-1.15,3.68,3.68,0,0,0,1.22-2.76,4.23,4.23,0,0,0-.64-2.25A10,10,0,0,0,16,117l-1.71-1a15,15,0,0,1-4.56-3.53,5.88,5.88,0,0,1-1.17-3.54,6.16,6.16,0,0,1,.93-3.26,6.61,6.61,0,0,1,2.48-2.39,8.1,8.1,0,0,1,3.93-.87,21.22,21.22,0,0,1,6,1v3.17a33.68,33.68,0,0,0-3.78-1.29,9.46,9.46,0,0,0-2.05-.22,4.13,4.13,0,0,0-3.17,1.11,3.41,3.41,0,0,0-1,2.27,3.28,3.28,0,0,0,.49,1.62,4.46,4.46,0,0,0,1.31,1.4,22.4,22.4,0,0,0,2.25,1.4l1.76,1a14.85,14.85,0,0,1,4.59,3.56,6.28,6.28,0,0,1,1.16,3.73,6.73,6.73,0,0,1-2.2,5c-1.46,1.4-3.62,2.1-6.46,2.1a16.2,16.2,0,0,1-2.55-.18,34.39,34.39,0,0,1-3.82-.89"/><path class="cls-3" d="M31.64,115.21H33c2.22,0,3.81-.53,4.79-1.58a5.54,5.54,0,0,0,1.44-3.89,4.68,4.68,0,0,0-.45-2.15,3.44,3.44,0,0,0-1.49-1.4,8.28,8.28,0,0,0-3.6-.55H31.64Zm-3.44,12.4V103h6.54a12.87,12.87,0,0,1,5,.7,5.07,5.07,0,0,1,2.34,2.14,7.13,7.13,0,0,1,.8,3.6,8.86,8.86,0,0,1-1.07,4.43,7,7,0,0,1-3.44,2.9,13,13,0,0,1-5.24,1H31.64v9.76Z"/><polygon class="cls-3" points="52.8 127.61 52.8 105.64 44.09 105.64 44.09 103.05 65 103.05 65 105.64 56.29 105.64 56.29 127.61 52.8 127.61"/><polygon class="cls-3" points="68.47 127.61 68.47 103.05 82.24 103.05 82.24 105.64 71.95 105.64 71.95 113.53 80.57 113.53 80.57 116.11 71.95 116.11 71.95 125 82.94 125 82.94 127.61 68.47 127.61"/><path class="cls-3" d="M105.34,126.34a17.64,17.64,0,0,1-2.68,1.16,14.59,14.59,0,0,1-2.48.54,18.42,18.42,0,0,1-2.77.18c-4.13,0-7.17-1.23-9.09-3.67a14.49,14.49,0,0,1-2.86-9.21,14.22,14.22,0,0,1,3-9.29q3-3.63,9.17-3.63a32.75,32.75,0,0,1,7.71,1.09v3.27a38.1,38.1,0,0,0-5.11-1.51,15.88,15.88,0,0,0-2.67-.23c-2.94,0-5.08,1-6.41,3a13.15,13.15,0,0,0-2,7.35,11.24,11.24,0,0,0,2.27,7.32,7.9,7.9,0,0,0,6.47,2.8,13.8,13.8,0,0,0,2.32-.2,16.42,16.42,0,0,0,2.31-.61,24,24,0,0,0,2.82-1.32Z"/><rect class="cls-3" y="133.36" width="0.41" height="3.16"/><path class="cls-3" d="M1.14,134.86a5.63,5.63,0,0,0,0-.61h.37l0,.37h0a.84.84,0,0,1,.75-.42c.32,0,.8.19.8,1v1.35H2.66v-1.3c0-.37-.13-.67-.52-.67a.6.6,0,0,0-.56.42.55.55,0,0,0,0,.19v1.36H1.14Z"/><path class="cls-3" d="M3.67,136.1a1.27,1.27,0,0,0,.55.16c.3,0,.44-.15.44-.34s-.12-.3-.42-.41-.6-.37-.6-.65a.7.7,0,0,1,.78-.66,1,1,0,0,1,.55.14l-.1.3a.83.83,0,0,0-.46-.14c-.24,0-.38.14-.38.31s.14.27.43.39.6.34.6.68-.32.69-.85.69a1.27,1.27,0,0,1-.63-.16Z"/><path class="cls-3" d="M6.07,133.7v.55h.59v.31H6.07v1.22c0,.28.08.44.31.44a.74.74,0,0,0,.24,0l0,.32a1.09,1.09,0,0,1-.37.06.6.6,0,0,1-.45-.18.89.89,0,0,1-.15-.59v-1.24H5.31v-.31h.36v-.43Z"/><path class="cls-3" d="M7.11,134.25h.41v2.27H7.11Zm.46-.64a.24.24,0,0,1-.26.25.24.24,0,0,1-.25-.25.26.26,0,1,1,.51,0"/><path class="cls-3" d="M8.69,133.7v.55h.59v.31H8.69v1.22c0,.28.08.44.31.44a.74.74,0,0,0,.24,0l0,.32a1.09,1.09,0,0,1-.37.06.6.6,0,0,1-.45-.18.89.89,0,0,1-.15-.59v-1.24H7.93v-.31h.36v-.43Z"/><path class="cls-3" d="M11.63,135.89a5.73,5.73,0,0,0,0,.62h-.37l0-.37h0a.84.84,0,0,1-.75.43c-.36,0-.79-.21-.79-1v-1.32h.42v1.25c0,.43.13.72.5.72a.6.6,0,0,0,.55-.38.62.62,0,0,0,0-.21v-1.38h.42Z"/><path class="cls-3" d="M12.79,133.7v.55h.59v.31h-.59v1.22c0,.28.08.44.31.44a.74.74,0,0,0,.24,0l0,.32a1.07,1.07,0,0,1-.36.06.59.59,0,0,1-.45-.18.89.89,0,0,1-.16-.59v-1.24H12v-.31h.35v-.43Z"/><path class="cls-3" d="M14.06,135.38c0,.5.28.87.69.87s.69-.36.69-.88-.19-.86-.68-.86-.7.45-.7.87m1.8,0a1.12,1.12,0,0,1-1.13,1.21,1.09,1.09,0,0,1-1.09-1.17,1.11,1.11,0,0,1,1.13-1.2,1.07,1.07,0,0,1,1.09,1.16"/><path class="cls-3" d="M17.31,136a1.42,1.42,0,0,0,.72.2c.42,0,.66-.22.66-.54s-.16-.46-.59-.62-.83-.46-.83-.9a.91.91,0,0,1,1-.86,1.43,1.43,0,0,1,.69.16l-.11.33a1.19,1.19,0,0,0-.6-.15c-.43,0-.59.26-.59.47s.19.45.62.61.81.47.81.93-.36.92-1.11.92a1.65,1.65,0,0,1-.8-.21Z"/><path class="cls-3" d="M21.54,135.89a5.73,5.73,0,0,0,0,.62h-.37l0-.37h0a.84.84,0,0,1-.75.43c-.36,0-.78-.21-.78-1v-1.32H20v1.25c0,.43.14.72.51.72a.59.59,0,0,0,.58-.59v-1.38h.41Z"/><path class="cls-3" d="M22.62,135.59a.91.91,0,0,0,0,.17.65.65,0,0,0,.62.48c.44,0,.69-.35.69-.87s-.24-.84-.67-.84a.64.64,0,0,0-.62.5.51.51,0,0,0,0,.17Zm-.41-.6c0-.29,0-.53,0-.74h.37l0,.38h0a.88.88,0,0,1,.81-.43,1,1,0,0,1,1,1.15,1.08,1.08,0,0,1-1,1.22.82.82,0,0,1-.7-.36h0v1.23h-.41Z"/><path class="cls-3" d="M26.3,135.16a.59.59,0,0,0-.57-.67.67.67,0,0,0-.63.67Zm-1.21.29a.73.73,0,0,0,.78.79,1.43,1.43,0,0,0,.63-.12l.07.3a1.91,1.91,0,0,1-.76.15,1.06,1.06,0,0,1-1.11-1.15,1.09,1.09,0,0,1,1.06-1.22,1,1,0,0,1,.94,1.06.78.78,0,0,1,0,.19Z"/><path class="cls-3" d="M27.2,135c0-.26,0-.49,0-.7h.36l0,.45h0a.68.68,0,0,1,.63-.5h.11v.39h-.14a.57.57,0,0,0-.55.52,1.21,1.21,0,0,0,0,.19v1.21H27.2Z"/><path class="cls-3" d="M28.73,134.25h.41v2.27h-.41Zm.46-.64a.24.24,0,0,1-.26.25.24.24,0,0,1-.25-.25.25.25,0,0,1,.26-.26.24.24,0,0,1,.25.26"/><path class="cls-3" d="M30.07,135.38c0,.5.28.87.69.87s.69-.36.69-.88-.2-.86-.68-.86-.7.45-.7.87m1.8,0a1.12,1.12,0,0,1-1.13,1.21,1.09,1.09,0,0,1-1.09-1.17,1.11,1.11,0,0,1,1.13-1.2,1.07,1.07,0,0,1,1.09,1.16"/><path class="cls-3" d="M32.37,135c0-.26,0-.49,0-.7h.36l0,.45h0a.67.67,0,0,1,.63-.5h.11v.39h-.14a.56.56,0,0,0-.55.52,1.21,1.21,0,0,0,0,.19v1.21h-.42Z"/><path class="cls-3" d="M35.29,134.92a1.58,1.58,0,0,0,.34,0c.49,0,.79-.24.79-.67s-.3-.62-.74-.62a1.73,1.73,0,0,0-.39,0Zm-.41-1.53a5.19,5.19,0,0,1,.79-.06,1.27,1.27,0,0,1,.88.27.83.83,0,0,1,.28.66,1,1,0,0,1-.24.67,1.32,1.32,0,0,1-1,.35,1.69,1.69,0,0,1-.33,0v1.26h-.41Z"/><path class="cls-3" d="M37.49,135.38c0,.5.28.87.69.87s.68-.36.68-.88-.19-.86-.68-.86-.69.45-.69.87m1.8,0a1.12,1.12,0,0,1-1.13,1.21,1.09,1.09,0,0,1-1.09-1.17,1.1,1.1,0,0,1,1.12-1.2,1.07,1.07,0,0,1,1.1,1.16"/><rect class="cls-3" x="39.79" y="133.19" width="0.41" height="3.33"/><path class="cls-3" d="M40.88,134.25h.42v2.27h-.42Zm.46-.64a.24.24,0,0,1-.26.25.24.24,0,0,1-.25-.25.26.26,0,0,1,.26-.26.24.24,0,0,1,.25.26"/><path class="cls-3" d="M42.46,133.7v.55h.59v.31h-.59v1.22c0,.28.08.44.31.44a.74.74,0,0,0,.24,0l0,.32a1.07,1.07,0,0,1-.36.06.59.59,0,0,1-.45-.18.89.89,0,0,1-.16-.59v-1.24h-.35v-.31h.35v-.43Z"/><path class="cls-3" d="M45,133.27l-.57.67h-.29l.41-.67Zm-.1,1.89a.58.58,0,0,0-.57-.67.67.67,0,0,0-.63.67Zm-1.2.29a.71.71,0,0,0,.77.79,1.4,1.4,0,0,0,.63-.12l.07.3a1.86,1.86,0,0,1-.75.15,1.06,1.06,0,0,1-1.12-1.15,1.09,1.09,0,0,1,1.07-1.22,1,1,0,0,1,.93,1.06.92.92,0,0,1,0,.19Z"/><path class="cls-3" d="M47.42,136.43a1.53,1.53,0,0,1-.65.14,1.08,1.08,0,0,1-1.13-1.16,1.16,1.16,0,0,1,1.22-1.21,1.28,1.28,0,0,1,.57.12l-.09.31a1,1,0,0,0-.48-.1.85.85,0,0,0,0,1.7,1.1,1.1,0,0,0,.51-.11Z"/><path class="cls-3" d="M47.89,134.86a5.63,5.63,0,0,0,0-.61h.37l0,.37h0a.86.86,0,0,1,.75-.42c.32,0,.8.19.8,1v1.35h-.41v-1.3c0-.37-.13-.67-.52-.67a.6.6,0,0,0-.56.42,1,1,0,0,0,0,.19v1.36h-.42Z"/><path class="cls-3" d="M50.48,134.25h.41v2.27h-.41Zm.46-.64a.24.24,0,0,1-.26.25.24.24,0,0,1-.25-.25.25.25,0,0,1,.26-.26.24.24,0,0,1,.25.26"/><path class="cls-3" d="M53.18,136.43a1.61,1.61,0,0,1-.65.14,1.08,1.08,0,0,1-1.13-1.16,1.16,1.16,0,0,1,1.22-1.21,1.31,1.31,0,0,1,.57.12l-.09.31a1.08,1.08,0,0,0-.48-.1.78.78,0,0,0-.8.85.77.77,0,0,0,.78.85,1.07,1.07,0,0,0,.51-.11Z"/><path class="cls-3" d="M53.88,135.38c0,.5.28.87.68.87s.69-.36.69-.88-.19-.86-.68-.86-.69.45-.69.87m1.79,0a1.11,1.11,0,0,1-1.12,1.21,1.09,1.09,0,0,1-1.09-1.17,1.1,1.1,0,0,1,1.12-1.2,1.07,1.07,0,0,1,1.09,1.16"/><path class="cls-3" d="M58.71,135.17a1,1,0,0,0,0-.17.61.61,0,0,0-.6-.48c-.42,0-.68.38-.68.87s.23.84.67.84a.64.64,0,0,0,.61-.49,1,1,0,0,0,0-.18Zm.4-2v2.74c0,.2,0,.43,0,.58h-.36l0-.39h0a.82.82,0,0,1-.76.45,1,1,0,0,1-1-1.16,1.07,1.07,0,0,1,1-1.21.78.78,0,0,1,.69.34h0v-1.35Z"/><path class="cls-3" d="M61.23,135.16a.59.59,0,0,0-.57-.67.68.68,0,0,0-.64.67Zm-1.21.29a.73.73,0,0,0,.78.79,1.38,1.38,0,0,0,.62-.12l.08.3a2,2,0,0,1-.76.15,1.06,1.06,0,0,1-1.12-1.15,1.1,1.1,0,0,1,1.07-1.22,1,1,0,0,1,.93,1.06.92.92,0,0,1,0,.19Z"/><polygon class="cls-3" points="63.52 133.7 62.56 133.7 62.56 133.36 64.9 133.36 64.9 133.7 63.94 133.7 63.94 136.51 63.52 136.51 63.52 133.7"/><path class="cls-3" d="M66.33,135.16a.59.59,0,0,0-.57-.67.67.67,0,0,0-.63.67Zm-1.21.29a.73.73,0,0,0,.78.79,1.43,1.43,0,0,0,.63-.12l.07.3a1.91,1.91,0,0,1-.76.15,1.06,1.06,0,0,1-1.11-1.15,1.09,1.09,0,0,1,1.06-1.22,1,1,0,0,1,.94,1.06.78.78,0,0,1,0,.19Z"/><path class="cls-3" d="M68.84,136.43a1.61,1.61,0,0,1-.65.14,1.08,1.08,0,0,1-1.13-1.16,1.16,1.16,0,0,1,1.22-1.21,1.31,1.31,0,0,1,.57.12l-.09.31a1.08,1.08,0,0,0-.48-.1.85.85,0,0,0,0,1.7,1.06,1.06,0,0,0,.5-.11Z"/><path class="cls-3" d="M69.31,134.86a5.63,5.63,0,0,0,0-.61h.37l0,.37h0a.83.83,0,0,1,.75-.42c.31,0,.8.19.8,1v1.35h-.41v-1.3c0-.37-.14-.67-.53-.67a.6.6,0,0,0-.55.42.54.54,0,0,0,0,.19v1.36h-.41Z"/><path class="cls-3" d="M72.16,135.38c0,.5.28.87.68.87s.69-.36.69-.88-.19-.86-.68-.86-.69.45-.69.87m1.79,0a1.12,1.12,0,0,1-1.13,1.21,1.09,1.09,0,0,1-1.09-1.17,1.11,1.11,0,0,1,1.13-1.2A1.07,1.07,0,0,1,74,135.36"/><rect class="cls-3" x="74.46" y="133.19" width="0.41" height="3.33"/><path class="cls-3" d="M75.81,135.38c0,.5.28.87.68.87s.69-.36.69-.88-.19-.86-.68-.86-.69.45-.69.87m1.79,0a1.11,1.11,0,0,1-1.13,1.21,1.09,1.09,0,0,1-1.09-1.17,1.11,1.11,0,0,1,1.13-1.2,1.07,1.07,0,0,1,1.09,1.16"/><path class="cls-3" d="M79.64,135.14a.48.48,0,0,0,0-.18.57.57,0,0,0-.57-.44c-.4,0-.68.33-.68.85s.23.82.67.82a.59.59,0,0,0,.57-.42.57.57,0,0,0,0-.22Zm.41,1a1.31,1.31,0,0,1-.33,1,1.23,1.23,0,0,1-.82.27,1.47,1.47,0,0,1-.76-.18l.1-.32a1.34,1.34,0,0,0,.67.18c.42,0,.73-.22.73-.8v-.25h0a.78.78,0,0,1-.72.38,1,1,0,0,1-1-1.1,1.08,1.08,0,0,1,1-1.2.77.77,0,0,1,.71.39h0v-.34h.37a5.08,5.08,0,0,0,0,.61Z"/><path class="cls-3" d="M80.69,134.25h.41v2.27h-.41Zm.46-.64a.25.25,0,0,1-.27.25.24.24,0,0,1-.25-.25.26.26,0,0,1,.26-.26.25.25,0,0,1,.26.26"/><path class="cls-3" d="M83,135.36c-.45,0-1,.07-1,.51a.36.36,0,0,0,.39.39.58.58,0,0,0,.56-.38.62.62,0,0,0,0-.13Zm.4.61a2.9,2.9,0,0,0,0,.54H83l0-.28h0a.84.84,0,0,1-.69.34.66.66,0,0,1-.7-.66c0-.54.49-.84,1.37-.84v0a.47.47,0,0,0-.52-.52,1.08,1.08,0,0,0-.6.17l-.09-.27a1.44,1.44,0,0,1,.75-.2c.69,0,.86.47.86.92Z"/><path class="cls-3" d="M84,136.1a1.19,1.19,0,0,0,.55.16c.29,0,.43-.15.43-.34s-.12-.3-.41-.41-.61-.37-.61-.65a.7.7,0,0,1,.78-.66,1.1,1.1,0,0,1,.56.14l-.1.3a.87.87,0,0,0-.47-.14c-.24,0-.37.14-.37.31s.13.27.43.39.59.34.59.68-.31.69-.84.69a1.34,1.34,0,0,1-.64-.16Z"/><path class="cls-3" d="M88.27,135.16a.58.58,0,0,0-.57-.67.67.67,0,0,0-.63.67Zm-1.21.29a.73.73,0,0,0,.78.79,1.4,1.4,0,0,0,.63-.12l.07.3a1.86,1.86,0,0,1-.75.15,1.06,1.06,0,0,1-1.12-1.15,1.09,1.09,0,0,1,1.06-1.22,1,1,0,0,1,.94,1.06.92.92,0,0,1,0,.19Z"/><path class="cls-3" d="M92.36,136.41a1.87,1.87,0,0,1-.83.16A1.48,1.48,0,0,1,90,135a1.57,1.57,0,0,1,1.65-1.66,1.82,1.82,0,0,1,.75.14l-.1.34a1.38,1.38,0,0,0-.63-.13,1.17,1.17,0,0,0-1.23,1.3,1.14,1.14,0,0,0,1.2,1.27,1.6,1.6,0,0,0,.67-.13Z"/><path class="cls-3" d="M92.84,134.25h.41v2.27h-.41Zm.46-.64a.25.25,0,0,1-.27.25.23.23,0,0,1-.24-.25.26.26,0,1,1,.51,0"/><path class="cls-3" d="M95,133.27l.44.67h-.31l-.27-.44h0l-.27.44h-.31l.44-.67Zm.41,1.89a.59.59,0,0,0-.57-.67.68.68,0,0,0-.64.67Zm-1.21.29a.73.73,0,0,0,.78.79,1.38,1.38,0,0,0,.62-.12l.08.3a2,2,0,0,1-.76.15,1.06,1.06,0,0,1-1.12-1.15,1.1,1.1,0,0,1,1.07-1.22,1,1,0,0,1,.94,1.06.78.78,0,0,1,0,.19Z"/><path class="cls-3" d="M96.25,134.86a5.63,5.63,0,0,0,0-.61h.37l0,.37h0a.86.86,0,0,1,.75-.42c.32,0,.8.19.8,1v1.35h-.41v-1.3c0-.37-.14-.67-.52-.67a.6.6,0,0,0-.56.42.55.55,0,0,0,0,.19v1.36h-.42Z"/><path class="cls-3" d="M100.46,136.43a1.63,1.63,0,0,1-.66.14,1.08,1.08,0,0,1-1.13-1.16,1.16,1.16,0,0,1,1.22-1.21,1.28,1.28,0,0,1,.57.12l-.09.31a1,1,0,0,0-.48-.1.85.85,0,0,0,0,1.7,1,1,0,0,0,.5-.11Z"/><path class="cls-3" d="M100.92,134.25h.42v2.27h-.42Zm.46-.64a.24.24,0,0,1-.26.25.24.24,0,0,1-.25-.25.26.26,0,0,1,.26-.26.24.24,0,0,1,.25.26"/><path class="cls-3" d="M103.2,135.36c-.45,0-1,.07-1,.51a.36.36,0,0,0,.38.39.56.56,0,0,0,.56-.38.32.32,0,0,0,0-.13Zm.4.61a4.27,4.27,0,0,0,0,.54h-.37l0-.28h0a.85.85,0,0,1-.7.34.65.65,0,0,1-.69-.66c0-.54.49-.84,1.36-.84v0a.46.46,0,0,0-.51-.52,1.08,1.08,0,0,0-.6.17l-.09-.27a1.44,1.44,0,0,1,.75-.2c.69,0,.86.47.86.92Z"/><path class="cls-3" d="M104.2,136.1a1.19,1.19,0,0,0,.54.16c.3,0,.44-.15.44-.34s-.12-.3-.42-.41-.6-.37-.6-.65a.7.7,0,0,1,.78-.66,1,1,0,0,1,.55.14l-.1.3a.83.83,0,0,0-.46-.14c-.24,0-.37.14-.37.31s.13.27.42.39.6.34.6.68-.32.69-.85.69a1.33,1.33,0,0,1-.63-.16Z"/></g></g></svg>