<svg xmlns="http://www.w3.org/2000/svg" viewBox="0 0 160.67 187.25"><defs><style>.cls-1{fill:#fdc600;}.cls-2{fill:#b2b2b2;}.cls-3{fill:#fff;}.cls-4{fill:#1d1d1b;}</style></defs><g id="Layer_2" data-name="Layer 2"><g id="Layer_1-2" data-name="Layer 1"><rect class="cls-1" width="160.67" height="187.25"/><path class="cls-2" d="M94.8,115.86c-8.22-2-12.87-8.67-20.66-19.39-2.33-3.2-5.42-10-6.54-13-2.08-6.19-3.68-11-2-17.33,1-3.55,2.18-9.21,15.73-10.47,10.85,0,14.69,0,27.14-1.67-.9,2-2.41,3.13-4.62,4.54C87.05,63.85,76.72,57.89,69.71,67c-1.81,7,.58,14.43,3.76,20.39A58.66,58.66,0,0,0,79,95.67a49.44,49.44,0,0,0,9.91,9.08c2.94,2.06,5.54,2.22,5-.51,1.24,1,3.38,5.19,4,6,.87,1.29.58,5.65-3,5.59"/><path class="cls-3" d="M81.48,26.1c7.91,0,17.9,2.84,25.62,7.76,9.32,5.93,15.27,14.73,9.55,19.1-5.26,2.33-9.43,4.67-12.76,5.54,16.91-8.6-10.4-35-41.63-22.37-1.71.78-7,5.34-6.93,11.94a19.67,19.67,0,0,0,3.76,10.26,69.2,69.2,0,0,0,12.22,13c3.18,2.46,8.61,8,12.16,11.49a35.72,35.72,0,0,1,7.21,9.17c1.7,3.12,2.56,6.75,3.81,10.21a77,77,0,0,0,3.59,8.43,63.23,63.23,0,0,0-4.19-6.34c-2.53-3.1-5.45-5.64-8.2-8.55C79.5,89.18,72.87,82.82,66.63,77.42c-13.5-11.75-24.87-21.11-24-32.88C45.42,28.15,64,25.42,81.48,26.1"/><rect class="cls-4" x="28.12" y="129.05" width="3.49" height="24.56"/><path class="cls-4" d="M36.43,153.15V149.7a22.44,22.44,0,0,0,4.35,1.63,12.46,12.46,0,0,0,2.53.28,4.69,4.69,0,0,0,3.35-1.15,3.63,3.63,0,0,0,1.22-2.75,4.27,4.27,0,0,0-.64-2.26A10,10,0,0,0,44,143l-1.71-1a14.91,14.91,0,0,1-4.55-3.52A5.83,5.83,0,0,1,36.57,135a6.09,6.09,0,0,1,.92-3.26A6.57,6.57,0,0,1,40,129.3a8.06,8.06,0,0,1,3.92-.87,21.23,21.23,0,0,1,6,1v3.17a32.93,32.93,0,0,0-3.79-1.3,9.37,9.37,0,0,0-2-.22,4.09,4.09,0,0,0-3.17,1.12,3.33,3.33,0,0,0-1,2.27,3.27,3.27,0,0,0,.48,1.62,4.66,4.66,0,0,0,1.31,1.39,22.06,22.06,0,0,0,2.26,1.4l1.76,1a14.75,14.75,0,0,1,4.58,3.56,6.24,6.24,0,0,1,1.16,3.73,6.69,6.69,0,0,1-2.2,5c-1.46,1.4-3.62,2.11-6.46,2.11a17.36,17.36,0,0,1-2.54-.18,34.53,34.53,0,0,1-3.83-.9"/><path class="cls-4" d="M59.68,141.21h1.37q3.33,0,4.79-1.58a5.49,5.49,0,0,0,1.45-3.89,4.56,4.56,0,0,0-.46-2.15,3.44,3.44,0,0,0-1.49-1.4,8.44,8.44,0,0,0-3.6-.54H59.68Zm-3.44,12.4V129.05h6.55a12.85,12.85,0,0,1,5,.69,5,5,0,0,1,2.34,2.14,7.13,7.13,0,0,1,.81,3.6,8.91,8.91,0,0,1-1.07,4.43,7.08,7.08,0,0,1-3.45,2.91,13,13,0,0,1-5.24,1H59.68v9.76Z"/><polygon class="cls-4" points="80.84 153.61 80.84 131.65 72.13 131.65 72.13 129.05 93.05 129.05 93.05 131.65 84.34 131.65 84.34 153.61 80.84 153.61"/><polygon class="cls-4" points="96.51 153.61 96.51 129.05 110.28 129.05 110.28 131.65 100 131.65 100 139.53 108.61 139.53 108.61 142.11 100 142.11 100 151 110.99 151 110.99 153.61 96.51 153.61"/><path class="cls-4" d="M133.39,152.34a16.75,16.75,0,0,1-2.69,1.16,14.5,14.5,0,0,1-2.47.55,20,20,0,0,1-2.78.18c-4.13,0-7.17-1.23-9.08-3.68a14.41,14.41,0,0,1-2.87-9.21,14.12,14.12,0,0,1,3-9.28q3-3.63,9.16-3.63a33.29,33.29,0,0,1,7.72,1.08v3.28a38.64,38.64,0,0,0-5.12-1.52,15.88,15.88,0,0,0-2.67-.23c-2.94,0-5.08,1-6.4,3a13.1,13.1,0,0,0-2,7.35,11.21,11.21,0,0,0,2.28,7.33,7.86,7.86,0,0,0,6.46,2.79,14.92,14.92,0,0,0,2.32-.19,16.42,16.42,0,0,0,2.31-.61,28.86,28.86,0,0,0,2.83-1.32Z"/><rect class="cls-4" x="28.04" y="159.36" width="0.41" height="3.16"/><path class="cls-4" d="M29.19,160.86c0-.24,0-.42,0-.61h.36l0,.37h0a.83.83,0,0,1,.75-.42c.31,0,.8.19.8,1v1.35h-.41v-1.31c0-.37-.14-.67-.53-.67a.58.58,0,0,0-.55.42.54.54,0,0,0,0,.19v1.37h-.41Z"/><path class="cls-4" d="M31.72,162.1a1.19,1.19,0,0,0,.55.16c.29,0,.43-.15.43-.34s-.11-.3-.42-.41-.6-.37-.6-.64a.7.7,0,0,1,.78-.67,1.1,1.1,0,0,1,.56.14l-.1.3a1,1,0,0,0-.47-.13c-.24,0-.37.14-.37.31s.13.27.42.39.6.34.6.67-.31.69-.84.69a1.34,1.34,0,0,1-.64-.16Z"/><path class="cls-4" d="M34.11,159.71v.54h.59v.31h-.59v1.23c0,.28.08.44.31.44a.74.74,0,0,0,.24,0l0,.31a1.07,1.07,0,0,1-.36.06.59.59,0,0,1-.45-.18.87.87,0,0,1-.16-.59v-1.24h-.35v-.31h.35v-.42Z"/><path class="cls-4" d="M35.15,160.25h.42v2.27h-.42Zm.46-.64a.26.26,0,1,1-.25-.26.25.25,0,0,1,.25.26"/><path class="cls-4" d="M36.73,159.71v.54h.59v.31h-.59v1.23c0,.28.08.44.31.44a.74.74,0,0,0,.24,0l0,.31a1.09,1.09,0,0,1-.37.06.58.58,0,0,1-.44-.18.87.87,0,0,1-.16-.59v-1.24H36v-.31h.35v-.42Z"/><path class="cls-4" d="M39.67,161.89a6,6,0,0,0,0,.63h-.37l0-.37h0a.85.85,0,0,1-.75.42c-.35,0-.78-.2-.78-1v-1.33h.41v1.25c0,.43.14.73.51.73a.6.6,0,0,0,.54-.38.65.65,0,0,0,0-.21v-1.39h.41Z"/><path class="cls-4" d="M40.84,159.71v.54h.59v.31h-.59v1.23c0,.28.08.44.31.44a.78.78,0,0,0,.24,0v.31a1,1,0,0,1-.36.06.6.6,0,0,1-.45-.18.87.87,0,0,1-.15-.59v-1.24h-.36v-.31h.36v-.42Z"/><path class="cls-4" d="M42.11,161.39c0,.49.28.87.68.87s.69-.37.69-.88-.19-.87-.68-.87-.69.45-.69.88m1.79,0a1.11,1.11,0,0,1-1.13,1.21,1.08,1.08,0,0,1-1.08-1.17,1.11,1.11,0,0,1,1.12-1.2,1.07,1.07,0,0,1,1.09,1.16"/><path class="cls-4" d="M45.35,162a1.37,1.37,0,0,0,.73.21c.41,0,.66-.22.66-.54s-.17-.47-.6-.63-.83-.45-.83-.89a.91.91,0,0,1,1-.86,1.38,1.38,0,0,1,.69.15l-.11.33a1.2,1.2,0,0,0-.59-.14c-.43,0-.6.25-.6.47s.19.44.63.61.8.46.8.92-.36.92-1.1.92a1.66,1.66,0,0,1-.81-.21Z"/><path class="cls-4" d="M49.58,161.89c0,.24,0,.45,0,.63h-.37l0-.37h0a.84.84,0,0,1-.75.42c-.35,0-.78-.2-.78-1v-1.33h.41v1.25c0,.43.14.73.51.73a.6.6,0,0,0,.54-.38.65.65,0,0,0,0-.21v-1.39h.41Z"/><path class="cls-4" d="M50.66,161.59a.88.88,0,0,0,0,.17.63.63,0,0,0,.62.49c.43,0,.68-.36.68-.88s-.23-.84-.67-.84a.65.65,0,0,0-.62.51.45.45,0,0,0,0,.16Zm-.41-.6c0-.29,0-.53,0-.74h.37l0,.39h0a.89.89,0,0,1,.81-.44,1,1,0,0,1,1,1.15,1.07,1.07,0,0,1-1,1.22.79.79,0,0,1-.7-.36h0v1.23h-.41Z"/><path class="cls-4" d="M54.34,161.16a.58.58,0,0,0-.57-.66.67.67,0,0,0-.63.66Zm-1.21.3a.73.73,0,0,0,.78.79,1.55,1.55,0,0,0,.63-.12l.07.29a1.7,1.7,0,0,1-.75.15,1.06,1.06,0,0,1-1.12-1.15,1.1,1.1,0,0,1,1.06-1.22,1,1,0,0,1,.94,1.07,1,1,0,0,1,0,.19Z"/><path class="cls-4" d="M55.24,161c0-.27,0-.5,0-.71h.36l0,.45h0a.69.69,0,0,1,.64-.5h.11v.39h-.14a.57.57,0,0,0-.55.53,1,1,0,0,0,0,.19v1.21h-.41Z"/><path class="cls-4" d="M56.78,160.25h.41v2.27h-.41Zm.46-.64a.25.25,0,0,1-.27.26.25.25,0,0,1-.25-.26.26.26,0,1,1,.52,0"/><path class="cls-4" d="M58.12,161.39c0,.49.28.87.68.87s.69-.37.69-.88-.19-.87-.68-.87-.69.45-.69.88m1.79,0a1.12,1.12,0,0,1-1.13,1.21,1.08,1.08,0,0,1-1.08-1.17,1.11,1.11,0,0,1,1.12-1.2,1.07,1.07,0,0,1,1.09,1.16"/><path class="cls-4" d="M60.42,161c0-.27,0-.5,0-.71h.36l0,.45h0a.69.69,0,0,1,.63-.5h.12v.39H61.4a.59.59,0,0,0-.56.53,1.09,1.09,0,0,0,0,.19v1.21h-.41Z"/><path class="cls-4" d="M63.34,160.92a1.55,1.55,0,0,0,.33,0c.5,0,.8-.24.8-.67s-.3-.62-.75-.62a1.62,1.62,0,0,0-.38,0Zm-.41-1.52a4,4,0,0,1,.78-.06,1.31,1.31,0,0,1,.89.26.89.89,0,0,1,.27.66.92.92,0,0,1-.24.67,1.32,1.32,0,0,1-1,.35,1.06,1.06,0,0,1-.32,0v1.27h-.41Z"/><path class="cls-4" d="M65.53,161.39c0,.49.28.87.69.87s.69-.37.69-.88-.19-.87-.68-.87-.7.45-.7.88m1.8,0a1.12,1.12,0,0,1-1.13,1.21,1.08,1.08,0,0,1-1.09-1.17,1.11,1.11,0,0,1,1.13-1.2,1.07,1.07,0,0,1,1.09,1.16"/><rect class="cls-4" x="67.84" y="159.19" width="0.41" height="3.33"/><path class="cls-4" d="M68.93,160.25h.41v2.27h-.41Zm.46-.64a.25.25,0,0,1-.27.26.24.24,0,0,1-.24-.26.25.25,0,0,1,.25-.26.26.26,0,0,1,.26.26"/><path class="cls-4" d="M70.51,159.71v.54h.59v.31h-.59v1.23c0,.28.08.44.31.44a.67.67,0,0,0,.23,0l0,.31a1,1,0,0,1-.36.06.6.6,0,0,1-.45-.18.87.87,0,0,1-.16-.59v-1.24h-.35v-.31h.35v-.42Z"/><path class="cls-4" d="M73.05,159.27l-.57.67h-.29l.41-.67ZM73,161.16a.59.59,0,0,0-.57-.66.68.68,0,0,0-.64.66Zm-1.21.3a.73.73,0,0,0,.78.79,1.54,1.54,0,0,0,.62-.12l.08.29a1.75,1.75,0,0,1-.76.15,1.06,1.06,0,0,1-1.11-1.15,1.1,1.1,0,0,1,1.06-1.22,1,1,0,0,1,.94,1.07.92.92,0,0,1,0,.19Z"/><path class="cls-4" d="M75.47,162.44a1.65,1.65,0,0,1-.65.13,1.08,1.08,0,0,1-1.13-1.16,1.16,1.16,0,0,1,1.22-1.21,1.31,1.31,0,0,1,.57.12l-.1.32a1,1,0,0,0-.47-.11.79.79,0,0,0-.8.86.78.78,0,0,0,.78.85,1.21,1.21,0,0,0,.51-.11Z"/><path class="cls-4" d="M75.94,160.86c0-.24,0-.42,0-.61h.37l0,.37h0a.83.83,0,0,1,.75-.42c.31,0,.8.19.8,1v1.35h-.41v-1.31c0-.37-.14-.67-.53-.67a.58.58,0,0,0-.55.42.54.54,0,0,0,0,.19v1.37h-.41Z"/><path class="cls-4" d="M78.52,160.25h.42v2.27h-.42Zm.47-.64a.25.25,0,0,1-.27.26.25.25,0,0,1-.25-.26.26.26,0,0,1,.52,0"/><path class="cls-4" d="M81.22,162.44a1.56,1.56,0,0,1-.65.13,1.08,1.08,0,0,1-1.13-1.16,1.16,1.16,0,0,1,1.22-1.21,1.28,1.28,0,0,1,.57.12l-.09.32a1,1,0,0,0-.48-.11.86.86,0,0,0,0,1.71,1.16,1.16,0,0,0,.5-.11Z"/><path class="cls-4" d="M81.92,161.39c0,.49.28.87.69.87s.69-.37.69-.88-.2-.87-.68-.87-.7.45-.7.88m1.8,0a1.12,1.12,0,0,1-1.13,1.21,1.08,1.08,0,0,1-1.09-1.17,1.11,1.11,0,0,1,1.13-1.2,1.07,1.07,0,0,1,1.09,1.16"/><path class="cls-4" d="M86.75,161.17a.5.5,0,0,0,0-.17.6.6,0,0,0-.59-.47c-.43,0-.68.37-.68.87s.23.84.67.84a.62.62,0,0,0,.6-.5.47.47,0,0,0,0-.17Zm.41-2v2.74c0,.2,0,.43,0,.59h-.37l0-.4h0a.81.81,0,0,1-.77.45,1,1,0,0,1-1-1.15,1.09,1.09,0,0,1,1-1.22.77.77,0,0,1,.68.34h0v-1.35Z"/><path class="cls-4" d="M89.27,161.16a.58.58,0,0,0-.57-.66.67.67,0,0,0-.63.66Zm-1.21.3a.73.73,0,0,0,.78.79,1.55,1.55,0,0,0,.63-.12l.07.29a1.75,1.75,0,0,1-.76.15,1.06,1.06,0,0,1-1.11-1.15,1.1,1.1,0,0,1,1.06-1.22,1,1,0,0,1,.94,1.07,1,1,0,0,1,0,.19Z"/><polygon class="cls-4" points="91.57 159.71 90.61 159.71 90.61 159.36 92.94 159.36 92.94 159.71 91.98 159.71 91.98 162.52 91.57 162.52 91.57 159.71"/><path class="cls-4" d="M94.37,161.16a.58.58,0,0,0-.57-.66.67.67,0,0,0-.63.66Zm-1.2.3a.72.72,0,0,0,.77.79,1.55,1.55,0,0,0,.63-.12l.07.29a1.7,1.7,0,0,1-.75.15,1.06,1.06,0,0,1-1.12-1.15,1.1,1.1,0,0,1,1.07-1.22,1,1,0,0,1,.93,1.07,1,1,0,0,1,0,.19Z"/><path class="cls-4" d="M96.89,162.44a1.65,1.65,0,0,1-.65.13,1.08,1.08,0,0,1-1.13-1.16,1.15,1.15,0,0,1,1.21-1.21,1.36,1.36,0,0,1,.58.12l-.1.32a1,1,0,0,0-.48-.11.86.86,0,0,0,0,1.71,1.25,1.25,0,0,0,.51-.11Z"/><path class="cls-4" d="M97.35,160.86c0-.24,0-.42,0-.61h.36l0,.37h0a.86.86,0,0,1,.75-.42c.32,0,.8.19.8,1v1.35h-.41v-1.31c0-.37-.13-.67-.52-.67a.6.6,0,0,0-.56.42,1,1,0,0,0,0,.19v1.37h-.42Z"/><path class="cls-4" d="M100.2,161.39c0,.49.28.87.68.87s.69-.37.69-.88-.19-.87-.68-.87-.69.45-.69.88m1.79,0a1.11,1.11,0,0,1-1.13,1.21,1.08,1.08,0,0,1-1.08-1.17,1.11,1.11,0,0,1,1.12-1.2,1.07,1.07,0,0,1,1.09,1.16"/><rect class="cls-4" x="102.5" y="159.19" width="0.41" height="3.33"/><path class="cls-4" d="M103.85,161.39c0,.49.28.87.68.87s.69-.37.69-.88-.19-.87-.68-.87-.69.45-.69.88m1.79,0a1.11,1.11,0,0,1-1.12,1.21,1.08,1.08,0,0,1-1.09-1.17,1.11,1.11,0,0,1,1.12-1.2,1.07,1.07,0,0,1,1.09,1.16"/><path class="cls-4" d="M107.68,161.14a.9.9,0,0,0,0-.18.61.61,0,0,0-.58-.44c-.39,0-.67.33-.67.86s.22.81.67.81a.61.61,0,0,0,.57-.42.83.83,0,0,0,0-.22Zm.41,1a1.31,1.31,0,0,1-.32,1,1.21,1.21,0,0,1-.83.28,1.46,1.46,0,0,1-.75-.19l.1-.32a1.2,1.2,0,0,0,.66.18c.42,0,.73-.22.73-.79v-.25h0a.8.8,0,0,1-.72.38,1,1,0,0,1-1-1.11,1.08,1.08,0,0,1,1-1.2.75.75,0,0,1,.71.39h0l0-.34h.36c0,.16,0,.35,0,.62Z"/><path class="cls-4" d="M108.73,160.25h.41v2.27h-.41Zm.46-.64a.26.26,0,1,1-.25-.26.25.25,0,0,1,.25.26"/><path class="cls-4" d="M111,161.36c-.45,0-1,.07-1,.51a.36.36,0,0,0,.38.39.57.57,0,0,0,.56-.38.59.59,0,0,0,0-.13Zm.4.61a4.56,4.56,0,0,0,0,.55h-.37l0-.29h0a.83.83,0,0,1-.69.34.65.65,0,0,1-.7-.65c0-.55.49-.85,1.37-.85v0a.46.46,0,0,0-.52-.52,1.07,1.07,0,0,0-.59.17l-.09-.28a1.4,1.4,0,0,1,.74-.2.81.81,0,0,1,.87.92Z"/><path class="cls-4" d="M112,162.1a1.23,1.23,0,0,0,.55.16c.3,0,.44-.15.44-.34s-.12-.3-.42-.41-.61-.37-.61-.64a.71.71,0,0,1,.79-.67,1,1,0,0,1,.55.14l-.1.3a.94.94,0,0,0-.46-.13c-.25,0-.38.14-.38.31s.13.27.43.39.59.34.59.67-.31.69-.84.69a1.34,1.34,0,0,1-.64-.16Z"/><path class="cls-4" d="M116.32,161.16a.59.59,0,0,0-.57-.66.68.68,0,0,0-.64.66Zm-1.21.3a.73.73,0,0,0,.78.79,1.54,1.54,0,0,0,.62-.12l.08.29a1.79,1.79,0,0,1-.76.15,1.06,1.06,0,0,1-1.11-1.15,1.1,1.1,0,0,1,1.06-1.22,1,1,0,0,1,.94,1.07.92.92,0,0,1,0,.19Z"/><path class="cls-4" d="M120.41,162.42a2.12,2.12,0,0,1-.84.15A1.47,1.47,0,0,1,118,161a1.57,1.57,0,0,1,1.65-1.66,1.66,1.66,0,0,1,.75.14l-.11.33a1.52,1.52,0,0,0-.63-.13,1.17,1.17,0,0,0-1.23,1.3,1.14,1.14,0,0,0,1.21,1.27,1.67,1.67,0,0,0,.67-.13Z"/><path class="cls-4" d="M120.88,160.25h.41v2.27h-.41Zm.46-.64a.26.26,0,1,1-.25-.26.25.25,0,0,1,.25.26"/><path class="cls-4" d="M123,159.27l.45.67h-.31l-.28-.44h0l-.27.44h-.31l.44-.67Zm.41,1.89a.58.58,0,0,0-.57-.66.67.67,0,0,0-.63.66Zm-1.21.3a.73.73,0,0,0,.78.79,1.59,1.59,0,0,0,.63-.12l.07.29a1.73,1.73,0,0,1-.75.15,1.06,1.06,0,0,1-1.12-1.15,1.1,1.1,0,0,1,1.06-1.22,1,1,0,0,1,.94,1.07,1,1,0,0,1,0,.19Z"/><path class="cls-4" d="M124.3,160.86c0-.24,0-.42,0-.61h.36l0,.37h0a.83.83,0,0,1,.75-.42c.31,0,.8.19.8,1v1.35h-.41v-1.31c0-.37-.14-.67-.53-.67a.58.58,0,0,0-.55.42.54.54,0,0,0,0,.19v1.37h-.41Z"/><path class="cls-4" d="M128.5,162.44a1.65,1.65,0,0,1-.65.13,1.08,1.08,0,0,1-1.13-1.16,1.16,1.16,0,0,1,1.22-1.21,1.35,1.35,0,0,1,.57.12l-.09.32a1.06,1.06,0,0,0-.48-.11.79.79,0,0,0-.8.86.78.78,0,0,0,.78.85,1.21,1.21,0,0,0,.51-.11Z"/><path class="cls-4" d="M129,160.25h.41v2.27H129Zm.46-.64a.26.26,0,1,1-.26-.26.26.26,0,0,1,.26.26"/><path class="cls-4" d="M131.25,161.36c-.45,0-1,.07-1,.51a.35.35,0,0,0,.38.39.57.57,0,0,0,.56-.38.59.59,0,0,0,0-.13Zm.39.61a3.09,3.09,0,0,0,0,.55h-.37l0-.29h0a.84.84,0,0,1-.69.34.65.65,0,0,1-.7-.65c0-.55.49-.85,1.37-.85v0a.46.46,0,0,0-.52-.52,1,1,0,0,0-.59.17l-.1-.28a1.47,1.47,0,0,1,.75-.2c.7,0,.86.48.86.92Z"/><path class="cls-4" d="M132.24,162.1a1.23,1.23,0,0,0,.55.16c.29,0,.43-.15.43-.34s-.11-.3-.41-.41-.61-.37-.61-.64a.7.7,0,0,1,.78-.67,1.07,1.07,0,0,1,.56.14l-.1.3a.94.94,0,0,0-.46-.13c-.25,0-.38.14-.38.31s.13.27.43.39.59.34.59.67-.31.69-.84.69a1.34,1.34,0,0,1-.64-.16Z"/></g></g></svg>